<svg xmlns="http://www.w3.org/2000/svg" xml:space="preserve" viewBox="413.11 214.63 453.79 385.16"><g paint-order="stroke"><path d="M927.7 430.9c-28.8-.4-56-1.3-80.6-2.6-1.2 6.1-3.5 11.7-6.9 16.2 1 .1 1.9.1 2.9.2 17.4 1 34.8 1.7 52.3 2.2 13.5.3 26.9.5 40.3.6-3.8-4.7-6.6-10.3-8-16.6zm0 0c-28.8-.4-56-1.3-80.6-2.6-1.2 6.1-3.5 11.7-6.9 16.2 1 .1 1.9.1 2.9.2 17.4 1 34.8 1.7 52.3 2.2 13.5.3 26.9.5 40.3.6-3.8-4.7-6.6-10.3-8-16.6zm0 0c-28.8-.4-56-1.3-80.6-2.6-1.2 6.1-3.5 11.7-6.9 16.2 1 .1 1.9.1 2.9.2 17.4 1 34.8 1.7 52.3 2.2 13.5.3 26.9.5 40.3.6-3.8-4.7-6.6-10.3-8-16.6zm145.3-2.7c-24.7 1.3-51.8 2.2-80.6 2.6-1.4 6.1-4.1 11.7-7.7 16.2 25.3-.5 50.6-1.5 75.9-2.9 5.5-.4 11-.7 16.5-1.1.6 0 1.1-.1 1.7-.1-2.8-4.2-4.8-9.2-5.8-14.7zm-145.3 2.7c-28.8-.4-56-1.3-80.6-2.6-1.2 6.1-3.5 11.7-6.9 16.2 1 .1 1.9.1 2.9.2 17.4 1 34.8 1.7 52.3 2.2 13.5.3 26.9.5 40.3.6-3.8-4.7-6.6-10.3-8-16.6zm145.3-2.7c-24.7 1.3-51.8 2.2-80.6 2.6-1.4 6.1-4.1 11.7-7.7 16.2 25.3-.5 50.6-1.5 75.9-2.9 5.5-.4 11-.7 16.5-1.1.6 0 1.1-.1 1.7-.1-2.8-4.2-4.8-9.2-5.8-14.7zm-145.3 2.7c-28.8-.4-56-1.3-80.6-2.6-1.2 6.1-3.5 11.7-6.9 16.2 1 .1 1.9.1 2.9.2 17.4 1 34.8 1.7 52.3 2.2 13.5.3 26.9.5 40.3.6-3.8-4.7-6.6-10.3-8-16.6zm145.3-2.7c-24.7 1.3-51.8 2.2-80.6 2.6-1.4 6.1-4.1 11.7-7.7 16.2 25.3-.5 50.6-1.5 75.9-2.9 5.5-.4 11-.7 16.5-1.1.6 0 1.1-.1 1.7-.1-2.8-4.2-4.8-9.2-5.8-14.7zm149.7-39.4c-2-9.6-4.6-19-7.8-28.2-5.2-15.6-11.9-30.7-19.9-45.1-12-21.5-27.1-41.5-44.9-59.4-47.7-47.7-110.2-75.2-177.1-78.4a281.93 281.93 0 0 0-26 0c-66.9 3.2-129.4 30.7-177.1 78.4C752.1 274 737 294 725 315.5c-8 14.4-14.7 29.5-19.9 45.1-2.9 8.8-5.4 17.8-7.4 26.8-1.3 5.9-2.5 12-3.4 18 3 9.9 13.5 16.1 23.8 20.1 3.8 1.5 7.7 2.7 11 3.6 11.3 3.2 22.5 5.3 33.6 7.2 10 1.6 20 2.9 30 4-2.9-4.9-4.8-10.5-5.6-16.7-43.2-4.5-69.8-10.7-69.8-17.5 0-7.4 31.5-14 81.6-18.6 10.5-1 21.9-1.8 33.9-2.6 37-2.3 80.5-3.7 127.1-3.7 46.6 0 90.2 1.4 127.1 3.7 12 .8 23.4 1.6 33.9 2.6 50.1 4.5 81.6 11.2 81.6 18.6 0 6.8-26.6 13-69.8 17.5-.7 5.4-2.3 10.5-4.6 14.9 21.7-2.5 43.3-6.1 64.6-11.9 2.7-.9 5.7-1.8 8.9-3 10-3.6 20.8-9 23.9-18.8-.6-5.2-1.6-10.6-2.8-16zm-396.6-38.3c-10.3 1.2-20.5 2.4-30.8 3.9-22 3.4-44.1 7.3-65.4 14.3 4-11.8 8.9-23.3 14.6-34.2 1.5-.8 3-1.6 4.6-2.4 26.4-13.4 56.9-23.9 90.2-31.4-5.3 15.7-9.7 32.3-13.2 49.8zM771 294c29.5-36.6 69.4-64.5 115.2-79.1-10.8 12.1-20.8 27-29.7 44.6-2 4-4 8.2-5.9 12.4-28.3 5.3-55.1 12.7-79.6 22.1zm176 48.9c-31.3.3-62.6 2-93.8 4.8 4.1-18.7 9.4-36.4 15.8-52.7 25-4 51.2-6.4 78-7v54.9zm0-80.9c-22.2.5-44 2.1-65.1 4.8 18.5-34.7 41.2-56.1 65.1-61.9V262zm26-57c23.9 5.7 46.5 27.2 65.1 61.9-21.1-2.7-42.9-4.4-65.1-4.8V205zm0 137.9V288c26.8.6 53 2.9 78 7 6.5 16.5 11.8 34.3 15.9 53.3-31.2-3.3-62.5-5-93.9-5.4zm90.6-83.5c-8.9-17.5-18.9-32.5-29.7-44.6 45.8 14.6 85.7 42.5 115.2 79.1-24.5-9.4-51.2-16.8-79.6-22.2-1.9-4.1-3.9-8.2-5.9-12.3zm63.7 97c-11-1.8-22.1-3.5-33.1-4.9-3.5-17.8-8-34.8-13.4-50.8 33.3 7.4 63.8 18 90.2 31.4 1.6.8 3.1 1.6 4.6 2.4 6.1 11.7 11.2 23.9 15.4 36.5-21.1-6.8-42.2-10.9-63.7-14.6zm-135 74.5c-1.4 6.1-4.1 11.7-7.7 16.2 25.3-.5 50.6-1.5 75.9-2.9 5.5-.4 11-.7 16.5-1.1.6 0 1.1-.1 1.7-.1-2.8-4.2-4.7-9.2-5.8-14.7-24.6 1.3-51.8 2.2-80.6 2.6zM847 428.2c-1.2 6.1-3.5 11.7-6.9 16.2 1 .1 1.9.1 2.9.2 17.4 1 34.8 1.7 52.3 2.2 13.5.3 26.9.5 40.3.6-3.8-4.6-6.5-10.3-8-16.6-28.7-.3-55.9-1.2-80.6-2.6zm226 0c-24.7 1.3-51.8 2.2-80.6 2.6-1.4 6.1-4.1 11.7-7.7 16.2 25.3-.5 50.6-1.5 75.9-2.9 5.5-.4 11-.7 16.5-1.1.6 0 1.1-.1 1.7-.1-2.8-4.2-4.8-9.2-5.8-14.7zm-145.3 2.7c-28.8-.4-56-1.3-80.6-2.6-1.2 6.1-3.5 11.7-6.9 16.2 1 .1 1.9.1 2.9.2 17.4 1 34.8 1.7 52.3 2.2 13.5.3 26.9.5 40.3.6-3.8-4.7-6.6-10.3-8-16.6zm145.3-2.7c-24.7 1.3-51.8 2.2-80.6 2.6-1.4 6.1-4.1 11.7-7.7 16.2 25.3-.5 50.6-1.5 75.9-2.9 5.5-.4 11-.7 16.5-1.1.6 0 1.1-.1 1.7-.1-2.8-4.2-4.8-9.2-5.8-14.7zm-145.3 2.7c-28.8-.4-56-1.3-80.6-2.6-1.2 6.1-3.5 11.7-6.9 16.2 1 .1 1.9.1 2.9.2 17.4 1 34.8 1.7 52.3 2.2 13.5.3 26.9.5 40.3.6-3.8-4.7-6.6-10.3-8-16.6zm145.3-2.7c-24.7 1.3-51.8 2.2-80.6 2.6-1.4 6.1-4.1 11.7-7.7 16.2 25.3-.5 50.6-1.5 75.9-2.9 5.5-.4 11-.7 16.5-1.1.6 0 1.1-.1 1.7-.1-2.8-4.2-4.8-9.2-5.8-14.7zm-145.3 2.7c-28.8-.4-56-1.3-80.6-2.6-1.2 6.1-3.5 11.7-6.9 16.2 1 .1 1.9.1 2.9.2 17.4 1 34.8 1.7 52.3 2.2 13.5.3 26.9.5 40.3.6-3.8-4.7-6.6-10.3-8-16.6zM907 641c-.1-5.3-.1-10.6 0-15.8-14 .5-27.9 1.1-41.8 1.9v15.3c13.3-.6 27.3-1 41.8-1.4zm147.9-15.3c-10.1-.4-20.1-.8-30.2-1.1l-11.6-.3v16.6c14.5.3 28.5.8 41.8 1.4-.1-5.5-.1-11.1 0-16.6zm147 20.3c-3.8-1.5-7.7-2.7-11-3.6-11.3-3.2-22.5-5.3-33.6-7.2-2.4-.4-4.7-.7-7.1-1.1-.1 5.2-.3 10.4-.6 15.7 33.2 4.2 53.1 9.6 53.1 15.5 0 9.1-48.1 17.1-119.8 21.5-8.6.5-17.5 1-26.7 1.4-29.5 1.3-62 2-96.2 2s-66.7-.7-96.2-2c-9.2-.4-18.1-.9-26.7-1.4-71.7-4.3-119.8-12.3-119.8-21.5 0-5.9 19.9-11.3 53.1-15.5-.2-4.7-.4-9.3-.5-13.9-14.4 2.2-28.7 5.1-42.8 8.9-2.7.9-5.7 1.8-8.9 2.9-10 3.6-20.8 9.1-23.9 18.8.8 5.5 1.8 10.9 3 16.2 2 9.6 4.6 19 7.8 28.2 5.2 15.6 11.9 30.7 19.9 45.1 12 21.5 27.1 41.5 44.9 59.4 47.7 47.7 110.2 75.2 177.1 78.4a281.93 281.93 0 0 0 26 0c66.9-3.2 129.4-30.7 177.1-78.4 17.9-17.9 32.9-37.9 44.9-59.4 8-14.4 14.7-29.5 19.9-45.1 2.9-8.8 5.4-17.8 7.4-26.8 1.3-5.9 2.4-12 3.4-18-3-9.9-13.5-16.1-23.8-20.1zm-452.8 93.5c-1.5-.8-3.1-1.6-4.6-2.4-6.1-11.7-11.2-23.9-15.4-36.6 21 6.8 42.1 10.9 63.6 14.6 11 1.8 22.1 3.5 33.1 4.9 3.5 17.8 8 34.8 13.4 50.8-33.2-7.4-63.7-17.9-90.1-31.3zm21.8 38c24.5 9.4 51.2 16.8 79.6 22.2 1.9 4.2 3.9 8.4 5.9 12.4 8.9 17.5 18.9 32.5 29.7 44.6-45.7-14.7-85.6-42.6-115.2-79.2zM947 866.6c-23.9-5.7-46.5-27.2-65.1-61.9 21.1 2.7 42.9 4.4 65.1 4.8v57.1zm0-83.1c-26.8-.6-53-2.9-78-7-6.5-16.5-11.8-34.3-15.9-53.3 31.2 3.2 62.5 5 93.9 5.4v54.9zm26-54.8c31.3-.3 62.6-2 93.8-4.8-4.1 18.7-9.4 36.4-15.8 52.7-25 4-51.1 6.4-78 7v-54.9zm0 137.9v-57c22.2-.5 44-2.1 65.1-4.8-18.6 34.6-41.3 56-65.1 61.8zm60.8-9.9c10.8-12.1 20.8-27 29.7-44.6 2.1-4 4-8.2 5.9-12.4 28.3-5.4 55.1-12.8 79.6-22.2-29.6 36.6-69.5 64.5-115.2 79.2zm141.6-119.6c-1.5.8-3 1.6-4.6 2.4-26.4 13.4-56.9 24-90.2 31.4 5.3-15.7 9.7-32.4 13.2-49.8 10.3-1.2 20.5-2.4 30.8-3.8 22-3.4 44.1-7.3 65.4-14.3-4 11.7-8.8 23.2-14.6 34.1zm-60.6-107.3c-3.9-.4-7.9-.8-11.8-1.1l-11.7-.9c-.3 5.5-.6 11.2-.8 16.5 8.7.6 17 1.2 24.9 1.9-.2-4.8-.3-10.4-.6-16.4zm-141-5.8c-9.2 0-18.5.1-27.7.2-.4 5.3-.7 10.8-1 16.2h29.6c-.2-5.4-.5-11-.9-16.4zm-145 5.5c-4 .3-7.9.6-11.9.9-4 .3-7.9.7-11.8 1.1-.2 5.3-.4 10.4-.5 14.7 7.9-.7 16.2-1.3 24.9-1.9-.2-4.8-.4-9.8-.7-14.8z" style="stroke:none;stroke-width:1;stroke-dasharray:none;stroke-linecap:butt;stroke-dashoffset:0;stroke-linejoin:miter;stroke-miterlimit:4;fill:#4b2e83;fill-rule:nonzero;opacity:1" transform="matrix(.53741 0 0 .53741 124.087 119.29)"></path><path d="M935.5 420.7c0-16.6 11-30 24.5-30s24.5 13.4 24.5 30-11 30-24.5 30-24.5-13.5-24.5-30zm-118.2 26.8c11.9.7 21.6-12.2 21.6-28.9s-9.7-29.9-21.6-29.7c-11.9.2-21.6 13.2-21.6 28.9.1 15.7 9.7 28.9 21.6 29.7zm285.4 0c11.9-.7 21.6-14 21.6-29.7s-9.7-28.6-21.6-28.9c-11.9-.3-21.6 13-21.6 29.7s9.6 29.6 21.6 28.9zm279.5 130.4c0 67.7-189 122.6-422.2 122.6s-422.2-54.9-422.2-122.6c0-43.2 76.8-81.2 193-103-78.1 19-127.7 47.6-127.7 79.5 0 38.1 70.7 71.4 176.2 89.4-2.2-53.8 1.8-105.4 4.1-130.1.3-3.6-3.9-5.8-5.4-2.9-10.8 20-22.1 47.1-22.1 47.1-7.6-2.6-13.7-9.2-13.7-9.2 8-35.5 28.3-68.2 37.6-82.6 3.4-5.4 8.6-8.9 14.5-9.9 10-1.6 20.3-.8 22.7-.5.3 0 .7.1 1 .1 2.4.1 12.7.8 22.7 4 5.9 2 11.1 6.7 14.5 13.4 6.6 12.9 18.6 39.1 27.9 69.9 10.8-30.6 26.2-56.9 34.3-69.7 3.9-6.2 9.8-10.4 16.5-11.9 11.3-2.5 23.1-2.4 25.8-2.3h1.2c2.7-.1 14.5-.2 25.8 2.3 6.7 1.5 12.6 5.7 16.5 11.9 8.1 12.8 23.4 39.1 34.3 69.7 9.3-30.9 21.3-57 27.9-69.9 3.4-6.6 8.6-11.4 14.5-13.4 10-3.3 20.3-3.9 22.7-4 .3 0 .7 0 1-.1 2.4-.2 12.7-1.1 22.7.5 5.9.9 11.1 4.5 14.5 9.9 9.3 14.4 29.6 47.1 37.6 82.6 0 0-6.1 6.6-13.7 9.2 0 0-11.3-27-22.1-47.1-1.6-2.9-5.8-.7-5.4 2.9 2.3 24.7 6.3 76.3 4.1 130.1 105.4-18 176.2-51.3 176.2-89.4 0-31.9-49.6-60.5-127.7-79.5 115.6 21.8 192.4 59.8 192.4 103zm-297.7 20.6c-1.7 13.8-2.8 36.2-3.3 53.5 14.9-1.6 29.3-3.4 43.2-5.5-.5-16.3-1.5-43.3-3.6-57.9-.8-5.3-3.9-9.2-8.2-10.1-2.7-.6-6-.8-9.9.2-3.9 1-7.2 2.9-9.9 4.9-4.4 3.1-7.5 8.8-8.3 14.9zm-85.8-74.1c2.5 25.8 6.7 78.4 5 132.9 20.7-.7 40.8-2 60.3-3.7-.9-52.5 2.5-103.2 4.6-128.6.3-4.1-3.9-5.2-5.4-1.4-10.8 27-22.1 64.3-22.1 64.3-7.6.9-13.7-4-13.7-4 .4-2.6.9-5.1 1.4-7.7-3.5-8.8-13.9-34.3-23.9-54-1.8-3.4-6.6-1.8-6.2 2.2zm-147.3.6c2.1 25.4 5.5 76.1 4.6 128.6 19.4 1.7 39.6 3 60.3 3.7-1.7-54.5 2.5-107.1 5-132.9.4-4-4.4-5.6-6.2-2.2-10 19.7-20.4 45.2-23.9 54 .5 2.6 1 5.1 1.4 7.7 0 0-6.1 4.9-13.7 4 0 0-11.3-37.3-22.1-64.3-1.5-3.8-5.7-2.7-5.4 1.4zm-55.8 121.5c13.9 2.1 28.3 3.9 43.2 5.5-.6-17.3-1.6-39.7-3.3-53.5-.8-6-3.9-11.7-8.2-15-2.7-2-6-3.9-9.9-4.9-3.9-1-7.2-.8-9.9-.2-4.4.9-7.5 4.8-8.2 10.1-2.2 14.7-3.2 41.7-3.7 58zM960 658.1c8.2 0 16.4-.1 24.5-.2-.6-17.6-1.8-42.7-4-57.3-.9-5.8-4.4-10.7-9.4-12.9-3-1.3-6.9-2.4-11.2-2.4-4.3 0-8.2 1.1-11.2 2.4-5 2.2-8.5 7.1-9.4 12.9-2.2 14.6-3.4 39.8-4 57.3 8.3.1 16.5.2 24.7.2z" style="stroke:none;stroke-width:1;stroke-dasharray:none;stroke-linecap:butt;stroke-dashoffset:0;stroke-linejoin:miter;stroke-miterlimit:4;fill:#b7a57a;fill-rule:nonzero;opacity:1" transform="matrix(.53741 0 0 .53741 124.087 119.29)"></path></g></svg>