<?xml version="1.0" encoding="UTF-8" standalone="no" ?>
<!DOCTYPE svg PUBLIC "-//W3C//DTD SVG 1.1//EN" "http://www.w3.org/Graphics/SVG/1.1/DTD/svg11.dtd">
<svg xmlns="http://www.w3.org/2000/svg" xmlns:xlink="http://www.w3.org/1999/xlink" version="1.1" width="1280" height="1024" viewBox="0 0 1280 1024" xml:space="preserve">
<desc>Created with Fabric.js 5.3.0</desc>
<defs>
</defs>
<g transform="matrix(1.9211538461538462 0 0 1.9211538461538462 640 407.20652896743127)" id="logo-logo"  >
<g style=""  paint-order="stroke"   >
		<g transform="matrix(0.27973281823705826 0 0 0.27973281823705826 5.684342e-14 0)"  >
<path style="stroke: none; stroke-width: 1; stroke-dasharray: none; stroke-linecap: butt; stroke-dashoffset: 0; stroke-linejoin: miter; stroke-miterlimit: 4; fill: rgb(75,46,131); fill-rule: nonzero; opacity: 1;"  paint-order="stroke"  transform=" translate(-960.0000000000002, -535.75)" d="M 927.7 430.9 C 898.9000000000001 430.5 871.7 429.59999999999997 847.1 428.29999999999995 C 845.9 434.4 843.6 439.99999999999994 840.2 444.49999999999994 C 841.2 444.59999999999997 842.1 444.59999999999997 843.1 444.69999999999993 C 860.5 445.69999999999993 877.9 446.3999999999999 895.4 446.8999999999999 C 908.9 447.19999999999993 922.3 447.3999999999999 935.6999999999999 447.49999999999994 C 931.9 442.8 929.1 437.2 927.7 430.9 z M 927.7 430.9 C 898.9000000000001 430.5 871.7 429.59999999999997 847.1 428.29999999999995 C 845.9 434.4 843.6 439.99999999999994 840.2 444.49999999999994 C 841.2 444.59999999999997 842.1 444.59999999999997 843.1 444.69999999999993 C 860.5 445.69999999999993 877.9 446.3999999999999 895.4 446.8999999999999 C 908.9 447.19999999999993 922.3 447.3999999999999 935.6999999999999 447.49999999999994 C 931.9 442.8 929.1 437.2 927.7 430.9 z M 927.7 430.9 C 898.9000000000001 430.5 871.7 429.59999999999997 847.1 428.29999999999995 C 845.9 434.4 843.6 439.99999999999994 840.2 444.49999999999994 C 841.2 444.59999999999997 842.1 444.59999999999997 843.1 444.69999999999993 C 860.5 445.69999999999993 877.9 446.3999999999999 895.4 446.8999999999999 C 908.9 447.19999999999993 922.3 447.3999999999999 935.6999999999999 447.49999999999994 C 931.9 442.8 929.1 437.2 927.7 430.9 z M 1073 428.2 C 1048.3 429.5 1021.2 430.4 992.4 430.8 C 991 436.90000000000003 988.3 442.5 984.6999999999999 447 C 1009.9999999999999 446.5 1035.3 445.5 1060.6 444.1 C 1066.1 443.70000000000005 1071.6 443.40000000000003 1077.1 443 C 1077.6999999999998 443 1078.1999999999998 442.9 1078.8 442.9 C 1076 438.7 1074 433.7 1073 428.2 z M 927.7 430.9 C 898.9000000000001 430.5 871.7 429.59999999999997 847.1 428.29999999999995 C 845.9 434.4 843.6 439.99999999999994 840.2 444.49999999999994 C 841.2 444.59999999999997 842.1 444.59999999999997 843.1 444.69999999999993 C 860.5 445.69999999999993 877.9 446.3999999999999 895.4 446.8999999999999 C 908.9 447.19999999999993 922.3 447.3999999999999 935.6999999999999 447.49999999999994 C 931.9 442.8 929.1 437.2 927.7 430.9 z M 1073 428.2 C 1048.3 429.5 1021.2 430.4 992.4 430.8 C 991 436.90000000000003 988.3 442.5 984.6999999999999 447 C 1009.9999999999999 446.5 1035.3 445.5 1060.6 444.1 C 1066.1 443.70000000000005 1071.6 443.40000000000003 1077.1 443 C 1077.6999999999998 443 1078.1999999999998 442.9 1078.8 442.9 C 1076 438.7 1074 433.7 1073 428.2 z M 927.7 430.9 C 898.9000000000001 430.5 871.7 429.59999999999997 847.1 428.29999999999995 C 845.9 434.4 843.6 439.99999999999994 840.2 444.49999999999994 C 841.2 444.59999999999997 842.1 444.59999999999997 843.1 444.69999999999993 C 860.5 445.69999999999993 877.9 446.3999999999999 895.4 446.8999999999999 C 908.9 447.19999999999993 922.3 447.3999999999999 935.6999999999999 447.49999999999994 C 931.9 442.8 929.1 437.2 927.7 430.9 z M 1073 428.2 C 1048.3 429.5 1021.2 430.4 992.4 430.8 C 991 436.90000000000003 988.3 442.5 984.6999999999999 447 C 1009.9999999999999 446.5 1035.3 445.5 1060.6 444.1 C 1066.1 443.70000000000005 1071.6 443.40000000000003 1077.1 443 C 1077.6999999999998 443 1078.1999999999998 442.9 1078.8 442.9 C 1076 438.7 1074 433.7 1073 428.2 z M 1222.7 388.8 C 1220.7 379.2 1218.1000000000001 369.8 1214.9 360.6 C 1209.7 345 1203 329.90000000000003 1195 315.5 C 1183 294 1167.9 274 1150.1 256.1 C 1102.3999999999999 208.40000000000003 1039.8999999999999 180.90000000000003 972.9999999999999 177.70000000000002 C 968.6999999999999 177.50000000000003 964.3999999999999 177.4 959.9999999999999 177.4 C 955.6999999999999 177.4 951.2999999999998 177.5 946.9999999999999 177.70000000000002 C 880.0999999999999 180.9 817.5999999999999 208.4 769.8999999999999 256.1 C 752.1 274 737 294 725 315.5 C 717 329.9 710.3 345 705.1 360.6 C 702.2 369.40000000000003 699.7 378.40000000000003 697.7 387.40000000000003 C 696.4000000000001 393.3 695.2 399.40000000000003 694.3000000000001 405.40000000000003 C 697.3000000000001 415.3 707.8000000000001 421.50000000000006 718.1 425.50000000000006 C 721.9 427.00000000000006 725.8000000000001 428.20000000000005 729.1 429.1000000000001 C 740.4 432.30000000000007 751.6 434.4000000000001 762.7 436.30000000000007 C 772.7 437.9000000000001 782.7 439.20000000000005 792.7 440.30000000000007 C 789.8000000000001 435.4000000000001 787.9000000000001 429.80000000000007 787.1 423.6000000000001 C 743.9 419.1000000000001 717.3000000000001 412.9000000000001 717.3000000000001 406.1000000000001 C 717.3000000000001 398.7000000000001 748.8000000000001 392.1000000000001 798.9000000000001 387.50000000000006 C 809.4000000000001 386.50000000000006 820.8000000000001 385.70000000000005 832.8000000000001 384.90000000000003 C 869.8000000000001 382.6 913.3000000000001 381.20000000000005 959.9000000000001 381.20000000000005 C 1006.5000000000001 381.20000000000005 1050.1000000000001 382.6 1087 384.90000000000003 C 1099 385.70000000000005 1110.4 386.50000000000006 1120.9 387.50000000000006 C 1171 392.00000000000006 1202.5 398.70000000000005 1202.5 406.1000000000001 C 1202.5 412.9000000000001 1175.9 419.1000000000001 1132.7 423.6000000000001 C 1132 429.00000000000006 1130.4 434.1000000000001 1128.1000000000001 438.50000000000006 C 1149.8000000000002 436.00000000000006 1171.4 432.40000000000003 1192.7 426.6000000000001 C 1195.4 425.7000000000001 1198.4 424.80000000000007 1201.6000000000001 423.6000000000001 C 1211.6000000000001 420.00000000000006 1222.4 414.6000000000001 1225.5000000000002 404.80000000000007 C 1224.9 399.6 1223.9 394.2 1222.7 388.8 z M 826.1 350.5 C 815.8000000000001 351.7 805.6 352.9 795.3000000000001 354.4 C 773.3000000000001 357.79999999999995 751.2 361.7 729.9000000000001 368.7 C 733.9000000000001 356.9 738.8000000000001 345.4 744.5000000000001 334.5 C 746.0000000000001 333.7 747.5000000000001 332.9 749.1000000000001 332.1 C 775.5000000000001 318.70000000000005 806.0000000000001 308.20000000000005 839.3000000000002 300.70000000000005 C 834 316.4 829.6 333 826.1 350.5 z M 771 294 C 800.5 257.4 840.4 229.5 886.2 214.9 C 875.4000000000001 227 865.4000000000001 241.9 856.5 259.5 C 854.5 263.5 852.5 267.7 850.6 271.9 C 822.3 277.2 795.5 284.6 771 294 z M 947 342.9 C 915.7 343.2 884.4 344.9 853.2 347.7 C 857.3000000000001 329 862.6 311.3 869 295 C 894 291 920.2 288.6 947 288 L 947 342.9 z M 947 262 C 924.8 262.5 903 264.1 881.9 266.8 C 900.4 232.10000000000002 923.1 210.70000000000002 947 204.9 L 947 262 z M 973 205 C 996.9 210.7 1019.5 232.2 1038.1 266.9 C 1016.9999999999999 264.2 995.1999999999999 262.5 972.9999999999999 262.09999999999997 L 972.9999999999999 205 z M 973 342.9 L 973 288 C 999.8 288.6 1026 290.9 1051 295 C 1057.5 311.5 1062.8 329.3 1066.9 348.3 C 1035.7 345 1004.4 343.3 973 342.9 z M 1063.6 259.4 C 1054.6999999999998 241.89999999999998 1044.6999999999998 226.89999999999998 1033.8999999999999 214.79999999999998 C 1079.6999999999998 229.39999999999998 1119.6 257.29999999999995 1149.1 293.9 C 1124.6 284.5 1097.8999999999999 277.09999999999997 1069.5 271.7 C 1067.6 267.6 1065.6 263.5 1063.6 259.4 z M 1127.3 356.4 C 1116.3 354.59999999999997 1105.2 352.9 1094.2 351.5 C 1090.7 333.7 1086.2 316.7 1080.8 300.7 C 1114.1 308.09999999999997 1144.6 318.7 1171 332.09999999999997 C 1172.6 332.9 1174.1 333.7 1175.6 334.49999999999994 C 1181.6999999999998 346.19999999999993 1186.8 358.3999999999999 1191 370.99999999999994 C 1169.9 364.2 1148.8 360.1 1127.3 356.4 z M 992.3 430.9 C 990.9 437 988.1999999999999 442.59999999999997 984.5999999999999 447.09999999999997 C 1009.8999999999999 446.59999999999997 1035.1999999999998 445.59999999999997 1060.5 444.2 C 1066 443.8 1071.5 443.5 1077 443.09999999999997 C 1077.6 443.09999999999997 1078.1 442.99999999999994 1078.7 442.99999999999994 C 1075.9 438.79999999999995 1074 433.79999999999995 1072.9 428.29999999999995 C 1048.3 429.6 1021.1 430.5 992.3 430.9 z M 847 428.2 C 845.8 434.3 843.5 439.9 840.1 444.4 C 841.1 444.5 842 444.5 843 444.59999999999997 C 860.4 445.59999999999997 877.8 446.29999999999995 895.3 446.79999999999995 C 908.8 447.09999999999997 922.1999999999999 447.29999999999995 935.5999999999999 447.4 C 931.8 442.79999999999995 929.0999999999999 437.09999999999997 927.5999999999999 430.79999999999995 C 898.9 430.5 871.7 429.6 847 428.2 z M 1073 428.2 C 1048.3 429.5 1021.2 430.4 992.4 430.8 C 991 436.90000000000003 988.3 442.5 984.6999999999999 447 C 1009.9999999999999 446.5 1035.3 445.5 1060.6 444.1 C 1066.1 443.70000000000005 1071.6 443.40000000000003 1077.1 443 C 1077.6999999999998 443 1078.1999999999998 442.9 1078.8 442.9 C 1076 438.7 1074 433.7 1073 428.2 z M 927.7 430.9 C 898.9000000000001 430.5 871.7 429.59999999999997 847.1 428.29999999999995 C 845.9 434.4 843.6 439.99999999999994 840.2 444.49999999999994 C 841.2 444.59999999999997 842.1 444.59999999999997 843.1 444.69999999999993 C 860.5 445.69999999999993 877.9 446.3999999999999 895.4 446.8999999999999 C 908.9 447.19999999999993 922.3 447.3999999999999 935.6999999999999 447.49999999999994 C 931.9 442.8 929.1 437.2 927.7 430.9 z M 1073 428.2 C 1048.3 429.5 1021.2 430.4 992.4 430.8 C 991 436.90000000000003 988.3 442.5 984.6999999999999 447 C 1009.9999999999999 446.5 1035.3 445.5 1060.6 444.1 C 1066.1 443.70000000000005 1071.6 443.40000000000003 1077.1 443 C 1077.6999999999998 443 1078.1999999999998 442.9 1078.8 442.9 C 1076 438.7 1074 433.7 1073 428.2 z M 927.7 430.9 C 898.9000000000001 430.5 871.7 429.59999999999997 847.1 428.29999999999995 C 845.9 434.4 843.6 439.99999999999994 840.2 444.49999999999994 C 841.2 444.59999999999997 842.1 444.59999999999997 843.1 444.69999999999993 C 860.5 445.69999999999993 877.9 446.3999999999999 895.4 446.8999999999999 C 908.9 447.19999999999993 922.3 447.3999999999999 935.6999999999999 447.49999999999994 C 931.9 442.8 929.1 437.2 927.7 430.9 z M 1073 428.2 C 1048.3 429.5 1021.2 430.4 992.4 430.8 C 991 436.90000000000003 988.3 442.5 984.6999999999999 447 C 1009.9999999999999 446.5 1035.3 445.5 1060.6 444.1 C 1066.1 443.70000000000005 1071.6 443.40000000000003 1077.1 443 C 1077.6999999999998 443 1078.1999999999998 442.9 1078.8 442.9 C 1076 438.7 1074 433.7 1073 428.2 z M 927.7 430.9 C 898.9000000000001 430.5 871.7 429.59999999999997 847.1 428.29999999999995 C 845.9 434.4 843.6 439.99999999999994 840.2 444.49999999999994 C 841.2 444.59999999999997 842.1 444.59999999999997 843.1 444.69999999999993 C 860.5 445.69999999999993 877.9 446.3999999999999 895.4 446.8999999999999 C 908.9 447.19999999999993 922.3 447.3999999999999 935.6999999999999 447.49999999999994 C 931.9 442.8 929.1 437.2 927.7 430.9 z M 907 641 C 906.9 635.7 906.9 630.4 907 625.2 C 893 625.7 879.1 626.3000000000001 865.2 627.1 C 865.2 632.2 865.2 637.3000000000001 865.2 642.4 C 878.5 641.8 892.5 641.4 907 641 z M 1054.9 625.7 C 1044.8000000000002 625.3000000000001 1034.8000000000002 624.9000000000001 1024.7 624.6 C 1020.8000000000001 624.5 1017 624.4 1013.1 624.3000000000001 C 1013.1 629.8000000000001 1013.1 635.3000000000001 1013.1 640.9000000000001 C 1027.6 641.2 1041.6 641.7 1054.9 642.3000000000001 C 1054.8 636.8 1054.8 631.2 1054.9 625.7 z M 1201.9 646 C 1198.1000000000001 644.5 1194.2 643.3 1190.9 642.4 C 1179.6000000000001 639.1999999999999 1168.4 637.1 1157.3000000000002 635.1999999999999 C 1154.9 634.8 1152.6000000000001 634.4999999999999 1150.2000000000003 634.0999999999999 C 1150.1000000000004 639.3 1149.9000000000003 644.4999999999999 1149.6000000000004 649.8 C 1182.8000000000004 654 1202.7000000000003 659.4 1202.7000000000003 665.3 C 1202.7000000000003 674.4 1154.6000000000004 682.4 1082.9000000000003 686.8 C 1074.3000000000004 687.3 1065.4000000000003 687.8 1056.2000000000003 688.1999999999999 C 1026.7000000000003 689.4999999999999 994.2000000000003 690.1999999999999 960.0000000000002 690.1999999999999 C 925.8000000000002 690.1999999999999 893.3000000000002 689.4999999999999 863.8000000000002 688.1999999999999 C 854.6000000000001 687.8 845.7000000000002 687.3 837.1000000000001 686.8 C 765.4000000000001 682.5 717.3000000000002 674.5 717.3000000000002 665.3 C 717.3000000000002 659.4 737.2000000000002 654 770.4000000000002 649.8 C 770.2000000000002 645.0999999999999 770.0000000000002 640.5 769.9000000000002 635.9 C 755.5000000000002 638.1 741.2000000000002 641 727.1000000000003 644.8 C 724.4000000000002 645.6999999999999 721.4000000000002 646.5999999999999 718.2000000000003 647.6999999999999 C 708.2000000000003 651.3 697.4000000000003 656.8 694.3000000000003 666.4999999999999 C 695.1000000000003 671.9999999999999 696.1000000000003 677.3999999999999 697.3000000000003 682.6999999999999 C 699.3000000000003 692.3 701.9000000000003 701.6999999999999 705.1000000000003 710.9 C 710.3000000000003 726.5 717.0000000000002 741.6 725.0000000000002 756 C 737.0000000000002 777.5 752.1000000000003 797.5 769.9000000000002 815.4 C 817.6000000000003 863.1 880.1000000000003 890.6 947.0000000000002 893.8 C 951.3000000000002 894 955.6000000000003 894.0999999999999 960.0000000000002 894.0999999999999 C 964.3000000000002 894.0999999999999 968.7000000000003 893.9999999999999 973.0000000000002 893.8 C 1039.9000000000003 890.5999999999999 1102.4000000000003 863.0999999999999 1150.1000000000001 815.4 C 1168.0000000000002 797.5 1183.0000000000002 777.5 1195.0000000000002 756 C 1203.0000000000002 741.6 1209.7000000000003 726.5 1214.9000000000003 710.9 C 1217.8000000000004 702.1 1220.3000000000004 693.1 1222.3000000000004 684.1 C 1223.6000000000004 678.2 1224.7000000000005 672.1 1225.7000000000005 666.1 C 1222.7 656.2 1212.2 650 1201.9 646 z M 749.1 739.5 C 747.6 738.7 746 737.9 744.5 737.1 C 738.4 725.4 733.3 713.2 729.1 700.5 C 750.1 707.3 771.2 711.4 792.7 715.1 C 803.7 716.9 814.8000000000001 718.6 825.8000000000001 720 C 829.3000000000001 737.8 833.8000000000001 754.8 839.2 770.8 C 806 763.4 775.5 752.9 749.1 739.5 z M 770.9 777.5 C 795.4 786.9 822.1 794.3 850.5 799.7 C 852.4 803.9000000000001 854.4 808.1 856.4 812.1 C 865.3 829.6 875.3 844.6 886.1 856.7 C 840.4 842 800.5 814.1 770.9 777.5 z M 947 866.6 C 923.1 860.9 900.5 839.4 881.9 804.7 C 903 807.4000000000001 924.8 809.1 947 809.5 L 947 866.6 z M 947 783.5 C 920.2 782.9 894 780.6 869 776.5 C 862.5 760 857.2 742.2 853.1 723.2 C 884.3000000000001 726.4000000000001 915.6 728.2 947 728.6 L 947 783.5 z M 973 728.7 C 1004.3 728.4000000000001 1035.6 726.7 1066.8 723.9000000000001 C 1062.7 742.6000000000001 1057.3999999999999 760.3000000000001 1051 776.6000000000001 C 1026 780.6000000000001 999.9 783.0000000000001 973 783.6000000000001 L 973 728.7 z M 973 866.6 L 973 809.6 C 995.2 809.1 1017 807.5 1038.1 804.8000000000001 C 1019.5 839.4 996.8 860.8 973 866.6 z M 1033.8 856.7 C 1044.6 844.6 1054.6 829.7 1063.5 812.1 C 1065.6 808.1 1067.5 803.9 1069.4 799.7 C 1097.7 794.3000000000001 1124.5 786.9000000000001 1149 777.5 C 1119.4 814.1 1079.5 842 1033.8 856.7 z M 1175.4 737.1 C 1173.9 737.9 1172.4 738.7 1170.8000000000002 739.5 C 1144.4 752.9 1113.9 763.5 1080.6000000000001 770.9 C 1085.9 755.1999999999999 1090.3000000000002 738.5 1093.8000000000002 721.1 C 1104.1000000000001 719.9 1114.3000000000002 718.7 1124.6000000000001 717.3000000000001 C 1146.6000000000001 713.9000000000001 1168.7 710.0000000000001 1190.0000000000002 703.0000000000001 C 1186 714.7 1181.2 726.2 1175.4 737.1 z M 1114.8 629.8 C 1110.8999999999999 629.4 1106.8999999999999 629 1103 628.6999999999999 C 1099.1 628.4 1095.2 628.0999999999999 1091.3 627.8 C 1091 633.3 1090.7 639 1090.5 644.3 C 1099.2 644.9 1107.5 645.5 1115.4 646.1999999999999 C 1115.2 641.4 1115.1 635.8 1114.8 629.8 z M 973.8 624 C 964.5999999999999 624 955.3 624.1 946.0999999999999 624.2 C 945.6999999999999 629.5 945.3999999999999 635 945.0999999999999 640.4000000000001 C 949.9999999999999 640.4000000000001 954.8999999999999 640.4000000000001 959.8999999999999 640.4000000000001 C 964.8999999999999 640.4000000000001 969.7999999999998 640.4000000000001 974.6999999999998 640.4000000000001 C 974.5 635 974.2 629.4 973.8 624 z M 828.8 629.5 C 824.8 629.8 820.9 630.1 816.9 630.4 C 812.9 630.6999999999999 809 631.1 805.1 631.5 C 804.9 636.8 804.7 641.9 804.6 646.2 C 812.5 645.5 820.8000000000001 644.9000000000001 829.5 644.3000000000001 C 829.3 639.5 829.1 634.5 828.8 629.5 z" stroke-linecap="round" />
</g>
		<g transform="matrix(0.27973281823705826 0 0 0.27973281823705826 0 2.5029126072224415)"  >
<path style="stroke: none; stroke-width: 1; stroke-dasharray: none; stroke-linecap: butt; stroke-dashoffset: 0; stroke-linejoin: miter; stroke-miterlimit: 4; fill: rgb(183,165,122); fill-rule: nonzero; opacity: 1;"  paint-order="stroke"  transform=" translate(-960, -544.6975114968503)" d="M 935.5 420.7 C 935.5 404.09999999999997 946.5 390.7 960 390.7 C 973.5 390.7 984.5 404.09999999999997 984.5 420.7 C 984.5 437.3 973.5 450.7 960 450.7 C 946.5 450.7 935.5 437.2 935.5 420.7 z M 817.3 447.5 C 829.1999999999999 448.2 838.9 435.3 838.9 418.6 C 838.9 401.90000000000003 829.1999999999999 388.70000000000005 817.3 388.90000000000003 C 805.4 389.1 795.6999999999999 402.1 795.6999999999999 417.8 C 795.8 433.5 805.4 446.7 817.3 447.5 z M 1102.7 447.5 C 1114.6000000000001 446.8 1124.3 433.5 1124.3 417.8 C 1124.3 402.1 1114.6 389.2 1102.7 388.90000000000003 C 1090.8000000000002 388.6000000000001 1081.1000000000001 401.90000000000003 1081.1000000000001 418.6 C 1081.1000000000001 435.3 1090.7 448.2 1102.7 447.5 z M 1382.2 577.9 C 1382.2 645.6 1193.2 700.5 960 700.5 C 726.8 700.5 537.8 645.6 537.8 577.9 C 537.8 534.6999999999999 614.5999999999999 496.7 730.8 474.9 C 652.6999999999999 493.9 603.0999999999999 522.5 603.0999999999999 554.4 C 603.0999999999999 592.5 673.8 625.8 779.3 643.8 C 777.0999999999999 590 781.0999999999999 538.4 783.4 513.6999999999999 C 783.6999999999999 510.0999999999999 779.5 507.8999999999999 778 510.79999999999995 C 767.2 530.8 755.9 557.9 755.9 557.9 C 748.3 555.3 742.1999999999999 548.6999999999999 742.1999999999999 548.6999999999999 C 750.1999999999999 513.1999999999999 770.4999999999999 480.49999999999994 779.8 466.0999999999999 C 783.1999999999999 460.69999999999993 788.4 457.19999999999993 794.3 456.19999999999993 C 804.3 454.5999999999999 814.5999999999999 455.3999999999999 817 455.69999999999993 C 817.3 455.69999999999993 817.7 455.79999999999995 818 455.79999999999995 C 820.4 455.9 830.7 456.59999999999997 840.7 459.79999999999995 C 846.6 461.79999999999995 851.8000000000001 466.49999999999994 855.2 473.19999999999993 C 861.8000000000001 486.0999999999999 873.8000000000001 512.3 883.1 543.0999999999999 C 893.9 512.4999999999999 909.3000000000001 486.19999999999993 917.4 473.3999999999999 C 921.3 467.19999999999993 927.1999999999999 462.99999999999994 933.9 461.49999999999994 C 945.1999999999999 458.99999999999994 957 459.09999999999997 959.6999999999999 459.19999999999993 C 960.0999999999999 459.19999999999993 960.4999999999999 459.19999999999993 960.9 459.19999999999993 C 963.6 459.0999999999999 975.4 458.99999999999994 986.6999999999999 461.49999999999994 C 993.4 462.99999999999994 999.3 467.19999999999993 1003.1999999999999 473.3999999999999 C 1011.3 486.19999999999993 1026.6 512.4999999999999 1037.5 543.0999999999999 C 1046.8 512.1999999999999 1058.8 486.0999999999999 1065.4 473.19999999999993 C 1068.8000000000002 466.5999999999999 1074 461.79999999999995 1079.9 459.79999999999995 C 1089.9 456.49999999999994 1100.2 455.9 1102.6000000000001 455.79999999999995 C 1102.9 455.79999999999995 1103.3000000000002 455.79999999999995 1103.6000000000001 455.69999999999993 C 1106.0000000000002 455.49999999999994 1116.3000000000002 454.5999999999999 1126.3000000000002 456.19999999999993 C 1132.2000000000003 457.0999999999999 1137.4 460.69999999999993 1140.8000000000002 466.0999999999999 C 1150.1000000000001 480.4999999999999 1170.4 513.1999999999999 1178.4 548.6999999999999 C 1178.4 548.6999999999999 1172.3000000000002 555.3 1164.7 557.9 C 1164.7 557.9 1153.4 530.9 1142.6000000000001 510.79999999999995 C 1141.0000000000002 507.9 1136.8000000000002 510.09999999999997 1137.2 513.6999999999999 C 1139.5 538.4 1143.5 589.9999999999999 1141.3 643.8 C 1246.7 625.8 1317.5 592.5 1317.5 554.4 C 1317.5 522.5 1267.9 493.9 1189.8 474.9 C 1305.4 496.7 1382.2 534.7 1382.2 577.9 z M 1084.5 598.5 C 1082.8 612.3 1081.7 634.7 1081.2 652 C 1096.1000000000001 650.4 1110.5 648.6 1124.4 646.5 C 1123.9 630.2 1122.9 603.2 1120.8000000000002 588.6 C 1120.0000000000002 583.3000000000001 1116.9 579.4 1112.6000000000001 578.5 C 1109.9 577.9 1106.6000000000001 577.7 1102.7 578.7 C 1098.8 579.7 1095.5 581.6 1092.8 583.6 C 1088.4 586.7 1085.3 592.4 1084.5 598.5 z M 998.7 524.4 C 1001.2 550.1999999999999 1005.4000000000001 602.8 1003.7 657.3 C 1024.4 656.5999999999999 1044.5 655.3 1064 653.5999999999999 C 1063.1 601.0999999999999 1066.5 550.3999999999999 1068.6 524.9999999999999 C 1068.8999999999999 520.8999999999999 1064.6999999999998 519.7999999999998 1063.1999999999998 523.5999999999999 C 1052.3999999999999 550.5999999999999 1041.1 587.8999999999999 1041.1 587.8999999999999 C 1033.5 588.7999999999998 1027.3999999999999 583.8999999999999 1027.3999999999999 583.8999999999999 C 1027.8 581.2999999999998 1028.3 578.7999999999998 1028.8 576.1999999999998 C 1025.3 567.3999999999999 1014.9 541.8999999999999 1004.9 522.1999999999998 C 1003.1 518.8 998.3 520.4 998.7 524.4 z M 851.4 525 C 853.5 550.4 856.9 601.1 856 653.6 C 875.4 655.3000000000001 895.6 656.6 916.3 657.3000000000001 C 914.5999999999999 602.8000000000001 918.8 550.2 921.3 524.4000000000001 C 921.6999999999999 520.4000000000001 916.9 518.8000000000001 915.0999999999999 522.2 C 905.0999999999999 541.9000000000001 894.6999999999999 567.4000000000001 891.1999999999999 576.2 C 891.6999999999999 578.8000000000001 892.1999999999999 581.3000000000001 892.5999999999999 583.9000000000001 C 892.5999999999999 583.9000000000001 886.4999999999999 588.8000000000001 878.8999999999999 587.9000000000001 C 878.8999999999999 587.9000000000001 867.5999999999999 550.6000000000001 856.7999999999998 523.6000000000001 C 855.3 519.8 851.1 520.9 851.4 525 z M 795.6 646.5 C 809.5 648.6 823.9 650.4 838.8000000000001 652 C 838.2 634.7 837.2 612.3 835.5000000000001 598.5 C 834.7000000000002 592.5 831.6000000000001 586.8 827.3000000000001 583.5 C 824.6 581.5 821.3000000000001 579.6 817.4000000000001 578.6 C 813.5000000000001 577.6 810.2 577.8000000000001 807.5000000000001 578.4 C 803.1000000000001 579.3 800.0000000000001 583.1999999999999 799.3000000000001 588.5 C 797.1 603.2 796.1 630.2 795.6 646.5 z M 960 658.1 C 968.2 658.1 976.4 658 984.5 657.9 C 983.9 640.3 982.7 615.1999999999999 980.5 600.6 C 979.6 594.8000000000001 976.1 589.9 971.1 587.7 C 968.1 586.4000000000001 964.2 585.3000000000001 959.9 585.3000000000001 C 955.5999999999999 585.3000000000001 951.6999999999999 586.4000000000001 948.6999999999999 587.7 C 943.6999999999999 589.9000000000001 940.1999999999999 594.8000000000001 939.3 600.6 C 937.0999999999999 615.2 935.9 640.4 935.3 657.9 C 943.6 658 951.8 658.1 960 658.1 z" stroke-linecap="round" />
</g>
</g>
</g>
<g transform="matrix(1 0 0 1 325 369.5341091868301)" id="text-logo"  >
<g style=""  paint-order="stroke"   >
		<g transform="matrix(1 0 0 1 0 0)" id="text-logo-path-0"  >
<path style="stroke: none; stroke-width: 0; stroke-dasharray: none; stroke-linecap: butt; stroke-dashoffset: 0; stroke-linejoin: miter; stroke-miterlimit: 4; fill: rgb(75,46,131); fill-rule: nonzero; opacity: 1;"  paint-order="stroke"  transform=" translate(0, 0)" d="" stroke-linecap="round" />
</g>
</g>
</g>
</svg>